<?xml version="1.0" encoding="utf-8"?>
<!-- Generator: Adobe Illustrator 25.1.0, SVG Export Plug-In . SVG Version: 6.00 Build 0)  -->
<svg version="1.1" id="Layer_1" xmlns="http://www.w3.org/2000/svg" xmlns:xlink="http://www.w3.org/1999/xlink" x="0px" y="0px"
	 viewBox="0 0 150 150" style="enable-background:new 0 0 150 150;" xml:space="preserve">
<style type="text/css">
	.st0{fill:#1A4483;}
	.st1{fill:#F7B643;}
	.st2{fill:#8DDEF1;}
	.st3{fill:#1A4483;stroke:#1A4483;stroke-miterlimit:10;}
	.st4{fill:#FFFFFF;}
	.st5{fill:#1A4483;stroke:#1A4483;stroke-width:3;stroke-miterlimit:10;}
</style>
<path class="st3" d="M27.1,56.16c-1.77-4.76-3.59-9.24-5.09-13.82c-1.14-3.48-1.53-7.13-0.97-10.81
	c0.96-6.39,5.48-10.42,11.99-10.72c5.28-0.25,10.23,1.13,15.08,3.01c5.99,2.31,11.56,5.44,16.95,8.9c0.16,0.1,0.3,0.25,0.54,0.44
	c-1.84,0.58-3.56,1.17-5.31,1.63c-0.38,0.1-0.93-0.2-1.33-0.44c-5.43-3.17-10.99-6.03-17.07-7.77c-3.33-0.95-6.72-1.59-10.19-0.91
	c-3.8,0.74-5.88,3.18-6.18,7.07c-0.36,4.57,0.81,8.87,2.45,13.06c0.95,2.44,2.12,4.79,3.16,7.2c0.27,0.62,0.58,0.83,1.3,0.73
	c4.28-0.58,7.7,0.99,10.02,4.57c2.3,3.56,2.21,7.28,0.01,10.91c-0.34,0.57-0.57,0.95-0.06,1.6c13.67,17.8,29.61,33.13,48.85,44.84
	c5.86,3.57,12.01,6.56,18.75,8.16c2.73,0.65,5.5,1.01,8.29,0.46c3.87-0.76,5.95-3.25,6.23-7.3c0.31-4.49-0.82-8.71-2.44-12.82
	c-1.04-2.66-2.26-5.26-3.38-7.85c-5.49,1.13-10.81,2.23-16.39,3.38c0.19-1.69,0.33-3.13,0.56-4.56c0.03-0.2,0.53-0.41,0.84-0.48
	c3.89-0.83,7.78-1.63,11.67-2.44c0.23-0.05,0.45-0.14,0.89-0.29c-1.78-1.48-0.83-3.01-0.37-4.55c0.3-0.97,0.55-1.95,0.9-3.22
	c0.9,1.43,1.69,2.68,2.61,4.13c0.91-4.3,3.17-7.22,7.21-8.46c4.03-1.24,7.51-0.08,10.45,2.8c5.26-2.89,6.35-8.75,2.47-13.19
	c-2.2-2.51-4.95-4.29-7.87-5.81c-6.3-3.29-13.05-5.26-19.94-6.83c-0.77-0.17-1.18-0.47-1.5-1.2c-0.56-1.3-1.27-2.55-2.02-4.02
	c2.95,0.67,5.77,1.27,8.57,1.97c5.45,1.36,10.82,2.99,15.9,5.44c3.98,1.92,7.69,4.25,10.57,7.68c4.44,5.28,4.45,11.25-0.01,16.53
	c-0.95,1.12-2.12,2.04-3.13,3.12c-0.31,0.33-0.63,0.92-0.55,1.3c1.57,7.42-6.09,14.69-14.26,11.15c-0.07-0.03-0.16-0.05-0.43-0.13
	c0.2,0.51,0.35,0.91,0.51,1.3c2.17,5.26,3.93,10.61,3.8,16.4c-0.17,7.61-5.12,12.58-12.72,12.78c-5.84,0.16-11.25-1.56-16.51-3.82
	c-10.52-4.52-19.89-10.91-28.73-18.1c-12.16-9.87-23-21.03-32.43-33.54c-0.17-0.23-0.35-0.44-0.51-0.64
	c-5.86,1.71-10.23,0.41-12.93-3.83C22.66,65.02,23.34,60.48,27.1,56.16z"/>
<path class="st3" d="M59.98,26.92c-1.23-0.65-2.4-1.23-3.51-1.9c-0.22-0.14-0.4-0.7-0.31-0.96c2-5.45,4.4-10.7,8.29-15.11
	c2.5-2.83,5.42-5,9.33-5.45c3.01-0.35,5.67,0.54,8.12,2.19c2.74,1.85,4.79,4.35,6.55,7.09c3.78,5.9,6.16,12.4,7.88,19.12
	c1.22,4.76,2.07,9.6,3.04,14.42c0.14,0.69,0.35,1.02,1.08,1.21c4.39,1.13,7.47,4.63,7.81,8.77c0.38,4.63-1.82,8.45-6.08,10.4
	c-0.62,0.28-0.81,0.59-0.83,1.27c-0.14,7.71-0.14,15.42-0.55,23.11c-0.43,8.15-1.81,16.2-3.73,24.15c-0.07,0.27-0.17,0.53-0.3,0.92
	c-1.23-0.69-2.43-1.3-3.56-2.03c-0.26-0.17-0.42-0.74-0.36-1.09c0.96-5.9,2.16-11.77,2.91-17.7c1.12-8.88,1.35-17.83,1.03-26.78
	c-0.02-0.64-0.07-1.08-0.92-1.29c-4.34-1.07-7.49-4.65-7.83-8.76c-0.39-4.65,1.88-8.48,6.19-10.47c0.22-0.1,0.43-0.22,0.7-0.36
	c-1.66-10.13-3.84-20.06-8.56-29.26c-1.47-2.86-3.2-5.54-5.58-7.74c-3.79-3.51-7.67-3.56-11.47-0.08c-3.6,3.28-5.74,7.53-7.61,11.93
	C61.11,23.96,60.58,25.41,59.98,26.92z"/>
<path class="st3" d="M90.04,123.02c1.21,0.64,2.36,1.19,3.43,1.85c0.25,0.15,0.47,0.76,0.37,1.03c-1.98,5.37-4.31,10.56-8.15,14.9
	c-1.13,1.28-2.43,2.46-3.83,3.44c-4.65,3.25-10,3.14-14.44-0.55c-2.14-1.78-4.11-3.95-5.6-6.29c-1.96-3.09-3.38-6.53-5.03-9.82
	c-0.2-0.39-0.34-0.81-0.59-1.41c-0.86,2.93-2.41,5.11-4.9,6.56c-4.53,2.64-10.17,1.4-13.33-2.95c-0.41-0.57-0.79-0.72-1.49-0.72
	c-1.92,0.01-3.88,0.07-5.75-0.29c-5.97-1.15-9.63-5.69-9.88-11.95c-0.23-5.75,1.44-11.09,3.57-16.32c0.48-1.17,1.02-2.31,1.56-3.54
	c1.49,0.45,2.89,0.87,4.45,1.34c-0.22,0.49-0.4,0.91-0.6,1.34c-1.9,4.15-3.6,8.37-4.14,12.94c-0.22,1.85-0.25,3.79,0.05,5.62
	c0.61,3.73,2.85,5.74,6.61,6.19c1.17,0.14,2.37,0.02,3.66,0.02c0.07-4.32,1.86-7.71,5.81-9.62c3.97-1.93,7.72-1.24,11.38,1.67
	c-0.43-1.91-0.79-3.55-1.19-5.35c1.81,0.95,3.5,1.69,5.01,2.7c0.56,0.37,0.68,1.39,1.11,2.36c3.71-2.43,7.43-4.87,11.28-7.4
	c1.1,0.87,2.31,1.82,3.63,2.86c-0.41,0.33-0.72,0.62-1.08,0.86c-3.94,2.58-7.88,5.17-11.84,7.72c-0.55,0.35-0.84,0.6-0.6,1.32
	c1.61,4.7,3.32,9.38,6.21,13.45c1.38,1.95,3.03,3.8,4.89,5.29c2.9,2.32,6.05,2.31,8.91-0.08c1.92-1.6,3.74-3.53,5.01-5.66
	c1.94-3.25,3.37-6.81,5-10.24C89.73,123.9,89.86,123.48,90.04,123.02z"/>
<path class="st3" d="M23.65,56.26c-0.69,1.81-1.32,3.57-2.04,5.3c-0.16,0.38-0.57,0.71-0.95,0.94c-2.55,1.55-5.22,2.93-7.65,4.64
	c-1.4,0.99-2.6,2.4-3.6,3.82c-1.87,2.65-1.77,5.45,0.03,8.16c1.53,2.3,3.64,3.99,5.94,5.45c5.03,3.19,10.55,5.23,16.24,6.87
	c7.26,2.09,14.68,3.4,22.18,4.28c0.78,0.09,1.64,0.52,2.21,1.06c1.35,1.3,2.54,2.76,3.76,4.11c-1.1-0.09-2.45-0.17-3.8-0.31
	c-12.11-1.24-24.01-3.39-35.32-8.1c-4.1-1.71-8.04-3.75-11.36-6.74C7.86,84.45,6.52,83,5.48,81.41c-2.79-4.31-2.71-8.72,0.06-13.05
	c0.5-0.79,1.08-1.55,1.73-2.24C11.82,61.26,17.67,58.58,23.65,56.26z"/>
<path class="st3" d="M98.34,30.36c-0.45-1.48-0.87-2.88-1.28-4.23c0.08-0.14,0.1-0.25,0.16-0.27c6.13-2.85,12.39-5.22,19.31-5.06
	c7.43,0.18,12.35,5.05,12.63,12.47c0.21,5.45-1.32,10.53-3.29,15.51c-0.57,1.44-1.23,2.84-1.9,4.36c-1.52-0.44-2.95-0.85-4.41-1.27
	c0.98-2.4,1.99-4.68,2.84-7.01c1.36-3.75,2.35-7.59,2.12-11.65c-0.27-4.73-2.98-7.47-7.69-7.76c-4.62-0.28-8.92,0.99-13.15,2.63
	C101.94,28.77,100.23,29.56,98.34,30.36z"/>
<path class="st3" d="M93.38,96.25c-0.14,1.2-0.32,2.38-0.42,3.56c-0.06,0.74-0.44,0.96-1.11,0.99c-5.27,0.23-10.55,0.48-15.82,0.71
	c-0.35,0.02-0.8,0.01-1.05-0.19c-1.7-1.37-3.36-2.8-5.09-4.25C77.79,96.79,85.53,96.52,93.38,96.25z"/>
<g>
	<g>
		<g>
			<path class="st1" d="M40.89,53.35c2.25-3.61,4.96-6.79,8.25-9.41c12.19-9.68,25.66-11.89,40.35-6.75
				c0.83,0.29,1.25,0.71,1.4,1.61c0.38,2.26,0.87,4.5,1.32,6.75c0.12,0.59,0.08,1.02-0.54,1.43c-4.1,2.67-6.31,6.43-5.88,11.39
				c0.44,5.16,3.36,8.56,8.08,10.5c0.19,0.08,0.37,0.18,0.6,0.29c0.36,8.15-0.01,16.28-0.83,24.53c-3.21,0.23-6.35,0.55-9.49,0.65
				c-4.43,0.14-8.86,0.09-13.29,0.16c-0.99,0.02-1.97,0.21-3.21,0.35c-5.26-4.54-10.33-9.73-15.06-15.24
				c-2.51-2.92-4.91-5.95-7.3-8.97C45,70.3,44.81,69.54,45,69.2c3.11-5.82,0.65-12.27-3.61-15.4
				C41.23,53.68,41.09,53.53,40.89,53.35z"/>
		</g>
		<g>
			<path class="st1" d="M34.61,76.5c2.24-1.38,3.31-0.22,4.62,1.37c3.93,4.77,8.08,9.37,12.14,14.03c0.27,0.3,0.55,0.59,1.09,1.18
				c-1.87-0.25-3.42-0.4-4.95-0.67c-2.98-0.52-5.96-1.08-8.93-1.68c-0.41-0.08-0.95-0.41-1.1-0.76
				C35.7,85.62,34.77,81.08,34.61,76.5z"/>
		</g>
		<g>
			<path class="st1" d="M44.51,101.48c3.26,0.42,6.18,0.81,9.1,1.16c2.07,0.24,4.15,0.48,6.24,0.59c0.8,0.04,1.63-0.29,2.66-0.49
				c1.5,1.31,3.21,2.81,5.08,4.45c-2.63,1.7-5.13,3.33-7.65,4.93c-0.2,0.13-0.57,0.13-0.79,0.04
				C53.58,109.75,48.78,106.29,44.51,101.48z"/>
		</g>
		<g>
			<path class="st1" d="M115.32,72.13c0.31,4.32,0,8.37-1.03,12.35c-0.46,1.78-1.05,3.53-1.67,5.26c-0.13,0.38-0.6,0.8-0.99,0.89
				c-2.79,0.64-5.59,1.21-8.6,1.84c0.19-2.44,0.36-4.69,0.51-6.51c1.04-0.88,1.91-1.42,2.52-2.17c2.86-3.53,5.64-7.12,8.46-10.69
				C114.73,72.83,114.96,72.56,115.32,72.13z"/>
		</g>
		<g>
			<path class="st1" d="M115.3,60.07c1.22,0.34,2.67,0.74,4.27,1.19c-4.59,7.72-9.89,14.78-15.75,21.63c0-2.45-0.01-4.68,0.02-6.91
				c0-0.25,0.19-0.53,0.35-0.75C107.84,70.24,111.49,65.26,115.3,60.07z"/>
		</g>
		<g>
			<path class="st1" d="M78.47,103.73c4.53-0.2,9.05-0.4,13.72-0.61c-0.52,3.1-1.02,6.15-1.6,9.64c-4.28-3.04-8.26-5.87-12.23-8.69
				C78.4,103.95,78.43,103.84,78.47,103.73z"/>
		</g>
		<g>
			<path class="st1" d="M110.54,58.9c0.65,0.2,1.22,0.38,2.11,0.66c-2.9,4.12-5.7,8.1-8.5,12.08c-0.13-0.04-0.27-0.07-0.4-0.11
				c0-0.91-0.02-1.82,0.02-2.74c0.01-0.2,0.18-0.44,0.35-0.58C108.83,64.28,108.83,64.28,110.54,58.9z"/>
		</g>
		<g>
			<path class="st1" d="M105.52,101.39c-1.46,1.49-2.71,2.77-4.16,4.25c0.22-1.42,0.39-2.54,0.56-3.71
				C103.06,101.76,104.17,101.59,105.52,101.39z"/>
		</g>
		<g>
			<path class="st1" d="M77.62,115.31c-1.74,0-3.48,0-5.56,0c1.12-0.83,1.99-1.48,2.94-2.2c0.89,0.64,1.8,1.3,2.71,1.97
				C77.69,115.15,77.66,115.23,77.62,115.31z"/>
		</g>
	</g>
</g>
</svg>
