<?xml version="1.0" encoding="utf-8"?>
<!-- Generator: Adobe Illustrator 25.1.0, SVG Export Plug-In . SVG Version: 6.00 Build 0)  -->
<svg version="1.1" id="Layer_1" xmlns="http://www.w3.org/2000/svg" xmlns:xlink="http://www.w3.org/1999/xlink" x="0px" y="0px"
	 viewBox="0 0 150 150" style="enable-background:new 0 0 150 150;" xml:space="preserve">
<style type="text/css">
	.st0{fill:#1A4483;}
	.st1{fill:#F7B643;}
	.st2{fill:#8DDEF1;}
	.st3{fill:#1A4483;stroke:#1A4483;stroke-miterlimit:10;}
	.st4{fill:#FFFFFF;}
	.st5{fill:#1A4483;stroke:#1A4483;stroke-width:3;stroke-miterlimit:10;}
</style>
<g>
	<path class="st3" d="M115.78,44.38c0,9.52,0,18.93,0,28.41c-12.04-0.67-22.53,2.94-31.06,11.46c-8.5,8.5-12.13,18.94-11.44,31.1
		c-0.5,0-1.02,0-1.55,0c-15.89,0-31.78,0-47.67,0c-8.69,0-14.85-6.13-14.85-14.79c-0.01-18.21,0-36.42,0-54.63c0-0.49,0-0.97,0-1.56
		C44.76,44.38,80.21,44.38,115.78,44.38z"/>
	<path class="st3" d="M87.39,15.87c4.88-0.01,9.77-0.08,14.65,0c7.18,0.11,13.3,5.95,13.75,13.15c0.16,2.65,0.03,5.31,0.03,8.06
		c-35.51,0-70.95,0-106.53,0c-0.1-5.92-0.88-11.96,3.87-16.8c2.76-2.81,6.08-4.35,10.01-4.41c4.83-0.07,9.67-0.01,14.5,0l-0.04-0.04
		c0.01,3.4,0.01,6.8,0.02,10.2c0.01,2.43,1.44,4.03,3.55,4.03c2.11,0,3.54-1.61,3.55-4.03c0.02-3.4,0.02-6.8,0.02-10.2l-0.04,0.04
		c11.86,0,23.72,0,35.58,0l-0.04-0.04c0.01,3.4,0.01,6.8,0.02,10.2c0.01,2.43,1.43,4.03,3.55,4.03c2.11,0,3.54-1.61,3.55-4.03
		c0.02-3.4,0.02-6.8,0.02-10.2L87.39,15.87z"/>
	<path class="st3" d="M37.67,15.87c0-1.23-0.06-2.46,0-3.69c0.09-1.97,1.63-3.44,3.54-3.44c1.9,0,3.45,1.46,3.54,3.44
		c0.06,1.23,0,2.46,0,3.69c0,0,0.04-0.04,0.04-0.04c-2.38,0-4.77,0-7.15,0L37.67,15.87z"/>
	<path class="st3" d="M80.32,15.87c-0.01-1.23-0.06-2.46,0-3.69c0.09-1.97,1.63-3.44,3.54-3.44c1.9,0,3.45,1.47,3.54,3.44
		c0.06,1.23,0,2.46,0,3.69c0,0,0.04-0.04,0.04-0.04c-2.38,0-4.77,0-7.15,0L80.32,15.87z"/>
	<g>
		<path class="st1" d="M43.72,103.41c-12.62,0.05-23.07-10.27-23.1-22.81c-0.03-12.7,10.26-23.15,22.85-23.19
			c12.78-0.05,23.19,10.2,23.26,22.88C66.79,93,56.48,103.36,43.72,103.41z M41.11,77.9c-1.55,0-2.99,0-4.44,0
			c-1.82,0.01-3.02,1.05-3,2.58c0.02,1.51,1.2,2.53,2.94,2.54c2.24,0.01,4.47,0.01,6.71,0c1.89-0.01,2.9-1.01,2.9-2.88
			c0.01-3.2,0-6.39,0-9.59c0-0.25,0.01-0.5-0.03-0.74c-0.22-1.28-1.37-2.21-2.65-2.14c-1.37,0.06-2.41,1.15-2.43,2.6
			C41.09,72.77,41.11,75.28,41.11,77.9z"/>
		<path class="st4" d="M41.11,77.9c0-2.62-0.02-5.13,0.01-7.64c0.02-1.46,1.06-2.54,2.43-2.6c1.28-0.06,2.43,0.86,2.65,2.14
			c0.04,0.24,0.03,0.5,0.03,0.74c0,3.2,0.01,6.39,0,9.59c-0.01,1.88-1.01,2.88-2.9,2.88c-2.24,0.01-4.47,0.01-6.71,0
			c-1.75-0.01-2.93-1.03-2.94-2.54c-0.02-1.54,1.19-2.58,3-2.58C38.12,77.89,39.57,77.9,41.11,77.9z"/>
	</g>
	<path class="st1" d="M37.63,15.82c2.38,0,4.77,0,7.15,0c-0.01,3.4-0.01,6.8-0.02,10.2c-0.01,2.42-1.44,4.03-3.55,4.03
		c-2.11,0-3.54-1.61-3.55-4.03C37.64,22.62,37.64,19.22,37.63,15.82z"/>
	<path class="st1" d="M80.28,15.82c2.38,0,4.77,0,7.15,0c-0.01,3.4-0.01,6.8-0.02,10.2c-0.01,2.42-1.44,4.03-3.55,4.03
		c-2.12,0-3.54-1.61-3.55-4.03C80.29,22.62,80.29,19.22,80.28,15.82z"/>
	<g>
		<path class="st1" d="M114,109.2c-1.39,4.68-4.47,7.31-9.39,7.94c0.09,0.06,0.2,0.11,0.28,0.18c3.41,3.17,6.82,6.34,10.22,9.51
			c0.77,0.72,0.96,1.8,0.48,2.67c-0.72,1.32-2.34,1.6-3.48,0.57c-1.1-0.99-2.17-2.01-3.26-3.02c-3.35-3.11-6.69-6.23-10.05-9.33
			c-0.63-0.58-0.95-1.26-0.91-2.12c0.01-0.33-0.02-0.65,0.02-0.98c0.14-1.18,1.08-1.99,2.29-2c1.48-0.01,2.96,0.02,4.44-0.03
			c1.89-0.06,4.01-1.63,4.65-3.4c-0.13,0-0.25,0-0.37,0c-3.25,0-6.49,0.01-9.74,0c-1.39,0-2.42-1.25-2.18-2.61
			c0.18-1.05,1.08-1.81,2.19-1.81c2.39-0.01,4.77,0,7.16,0c0.97,0,1.95,0,2.96,0c-0.03-0.09-0.04-0.15-0.07-0.2
			c-0.88-1.77-2.31-2.82-4.24-3.17c-0.36-0.07-0.73-0.05-1.1-0.05c-1.52,0-3.05,0-4.57,0c-1.16,0-2.01-0.63-2.28-1.66
			c-0.38-1.41,0.67-2.79,2.13-2.79c6.54,0,13.07,0,19.61,0c1.25,0,2.22,0.99,2.23,2.26c0.01,1.16-0.98,2.15-2.19,2.16
			c-1.98,0.02-3.95,0-5.93,0.01c-0.11,0-0.23,0-0.38,0c0.05,0.1,0.08,0.18,0.12,0.24c0.58,0.89,1,1.85,1.24,2.88
			c0.07,0.28,0.19,0.33,0.45,0.33c1.47-0.01,2.94-0.01,4.41,0c1.26,0,2.14,0.83,2.26,2.11c0.1,1.06-0.71,2.06-1.85,2.28
			c-0.15,0.03-0.31,0.03-0.47,0.03c-1.45,0-2.9,0-4.35,0C114.21,109.2,114.09,109.2,114,109.2z"/>
	</g>
	<path class="st5" d="M118.87,87.02c-0.54,0.92-1.06,1.76-1.54,2.63c-0.09,0.16-0.1,0.44-0.01,0.58c0.06,0.1,0.37,0.12,0.53,0.07
		c2.94-0.97,5.88-1.95,8.82-2.93c0.07-0.02,0.13-0.07,0.24-0.13c-0.74-0.85-1.47-1.67-2.19-2.49c-1.35-1.52-2.69-3.05-4.06-4.56
		c-0.16-0.18-0.44-0.25-0.66-0.38c-0.09,0.23-0.25,0.47-0.25,0.7c-0.01,0.86,0.04,1.72,0.06,2.63c-0.2-0.05-0.36-0.08-0.51-0.12
		c-9.84-2.56-18.87-0.81-26.79,5.54c-11.93,9.56-14.65,26.84-5.76,39.76c8.35,12.14,24.2,16.44,37.37,9.89
		c10.4-5.17,15.89-13.85,16.66-25.43c0.3-4.56-0.63-8.94-2.46-13.13c-0.52-1.19-1.51-1.64-2.61-1.18c-1.13,0.47-1.57,1.53-1.06,2.72
		c1.95,4.53,2.63,9.22,1.91,14.1c-0.64,4.33-2.24,8.27-4.91,11.74c-5.01,6.5-11.65,9.93-19.84,10.2c-5.46,0.18-10.49-1.34-15-4.42
		c-5.98-4.08-9.66-9.71-10.9-16.84c-1.18-6.77,0.18-13.08,4.03-18.78c6.25-9.26,17.53-13.38,28.27-10.39
		C118.4,86.87,118.6,86.94,118.87,87.02z"/>
</g>
</svg>
