<?xml version="1.0" encoding="utf-8"?>
<!-- Generator: Adobe Illustrator 25.1.0, SVG Export Plug-In . SVG Version: 6.00 Build 0)  -->
<svg version="1.1" id="Layer_1" xmlns="http://www.w3.org/2000/svg" xmlns:xlink="http://www.w3.org/1999/xlink" x="0px" y="0px"
	 viewBox="0 0 150 150" style="enable-background:new 0 0 150 150;" xml:space="preserve">
<style type="text/css">
	.st0{fill:#1A4483;}
	.st1{fill:#F7B643;}
	.st2{fill:#8DDEF1;}
	.st3{fill:#1A4483;stroke:#1A4483;stroke-miterlimit:10;}
	.st4{fill:#FFFFFF;}
	.st5{fill:#1A4483;stroke:#1A4483;stroke-width:3;stroke-miterlimit:10;}
</style>
<g>
	<path class="st0" d="M76.95,96.06c-10.07-0.12-18.03-0.73-25.87-2.49c-2.12-0.48-3.33-2.08-3.08-4.23
		c0.6-5.22,1.13-10.46,1.91-15.66c1.4-9.3,8.32-15.66,17.76-16.12c5.33-0.26,10.7-0.21,16.03,0.11c8.43,0.52,15.64,7.72,16.59,16.09
		c0.57,5.02,1.22,10.02,1.76,15.04c0.33,3.04-0.81,4.48-3.83,4.97c-3.28,0.54-6.55,1.15-9.85,1.47
		C83.9,95.69,79.4,95.89,76.95,96.06z"/>
	<path class="st0" d="M96.66,55.49c3.77-4.51,8.46-6.96,14.2-7.08c5.13-0.11,10.28-0.21,15.4,0.13c8.96,0.6,16.09,7.88,17.01,16.84
		c0.49,4.73,1.09,9.44,1.68,14.16c0.37,2.97-0.75,4.64-3.73,5.23c-10.8,2.14-21.68,2.75-32.66,1.91c-0.2-0.02-0.4-0.08-0.69-0.14
		c-0.42-3.43-0.86-6.85-1.26-10.27c-0.44-3.72-0.86-7.43-2.43-10.9C102.47,61.53,99.97,58.31,96.66,55.49z"/>
	<path class="st0" d="M42.12,86.83c-2.52,0.1-4.92,0.3-7.31,0.29c-8.89-0.05-17.75-0.46-26.47-2.42c-2.42-0.54-3.62-2.09-3.34-4.55
		C5.63,74.8,6.19,69.44,7,64.12c1.33-8.77,9.06-15.44,17.9-15.56c4.76-0.07,9.52-0.1,14.27,0.01c5.75,0.14,10.42,2.58,14.31,7.24
		c-0.28,0.15-0.54,0.23-0.72,0.39c-5.43,4.79-8.32,10.87-9.1,18.02C43.19,78.35,42.65,82.47,42.12,86.83z"/>
	<path class="st0" d="M49.86,26.47c-0.5,10.06-8.75,17.73-18.52,17.22c-9.84-0.52-17.43-8.81-16.96-18.52
		c0.47-9.7,8.77-17.41,18.27-16.96C42.58,8.67,50.33,16.89,49.86,26.47z"/>
	<path class="st0" d="M135.66,25.98c-0.02,9.75-8.04,17.75-17.8,17.72c-9.76-0.02-17.76-8.05-17.72-17.8
		c0.04-9.79,8.02-17.74,17.79-17.72C127.7,8.21,135.67,16.21,135.66,25.98z"/>
	<path class="st0" d="M57.29,34.82c0.03-9.83,7.95-17.68,17.82-17.65c9.82,0.04,17.67,7.98,17.62,17.85
		c-0.05,9.76-7.96,17.6-17.76,17.59C65.13,52.59,57.26,44.68,57.29,34.82z"/>
	<path class="st1" d="M16.54,129.22c0.42-1.79,0.93-3.96,1.43-6.13c0.15-0.65,0.32-1.31,0.46-1.96c0.28-1.36-0.11-2.49-1.17-3.39
		c-1.83-1.55-3.65-3.11-5.49-4.65c-1.21-1.01-1.79-2.22-1.31-3.79c0.45-1.47,1.6-2.27,3.34-2.4c2.22-0.17,4.44-0.37,6.67-0.52
		c1.77-0.12,2.97-0.91,3.63-2.62c0.83-2.16,1.8-4.26,2.69-6.39c0.58-1.41,1.53-2.31,3.12-2.33c1.68-0.02,2.75,0.85,3.38,2.36
		c0.9,2.13,1.87,4.23,2.7,6.38c0.67,1.72,1.91,2.47,3.66,2.6c2.27,0.17,4.53,0.35,6.8,0.53c1.67,0.13,2.85,0.94,3.28,2.31
		c0.5,1.57-0.1,2.78-1.3,3.78c-1.71,1.43-3.37,2.93-5.12,4.3c-1.55,1.22-2.03,2.66-1.5,4.56c0.58,2.11,1.01,4.25,1.56,6.37
		c0.4,1.56,0.26,2.95-1.12,3.96c-1.4,1.02-2.81,0.84-4.23-0.06c-1.81-1.15-3.68-2.2-5.47-3.39c-1.72-1.15-3.32-1.11-5.03,0.03
		c-1.96,1.3-3.97,2.53-6.02,3.69C19.21,133.74,16.54,132.17,16.54,129.22z"/>
	<path class="st1" d="M106.33,129.1c0.49-2.08,0.96-4.52,1.67-6.89c0.64-2.15,0.15-3.73-1.64-5.08c-1.67-1.27-3.23-2.7-4.84-4.06
		c-1.19-1.01-1.79-2.21-1.27-3.79c0.48-1.46,1.6-2.24,3.36-2.38c2.18-0.17,4.36-0.37,6.55-0.51c1.82-0.11,3.06-0.9,3.74-2.66
		c0.85-2.19,1.84-4.33,2.74-6.51c0.57-1.39,1.56-2.17,3.08-2.19c1.56-0.02,2.64,0.76,3.26,2.16c0.95,2.15,1.91,4.3,2.76,6.5
		c0.68,1.76,1.92,2.56,3.73,2.69c2.27,0.16,4.53,0.35,6.8,0.52c1.68,0.13,2.79,0.92,3.25,2.35c0.5,1.53-0.09,2.71-1.24,3.69
		c-1.83,1.55-3.65,3.11-5.5,4.64c-1.28,1.06-1.66,2.35-1.27,3.94c0.58,2.37,1.11,4.75,1.71,7.11c0.38,1.49-0.03,2.68-1.22,3.57
		c-1.2,0.89-2.51,0.92-3.79,0.16c-2.06-1.23-4.11-2.48-6.13-3.76c-1.52-0.96-2.96-0.97-4.48,0c-2.06,1.31-4.15,2.56-6.24,3.83
		c-1.15,0.7-2.32,0.71-3.46,0C106.8,131.74,106.26,130.75,106.33,129.1z"/>
	<path class="st1" d="M74.9,136.62c-0.72,0.3-1.42,0.49-2.02,0.85c-1.92,1.13-3.83,2.29-5.71,3.49c-1.48,0.95-2.94,1.28-4.45,0.17
		c-1.49-1.1-1.48-2.58-1.05-4.21c0.57-2.15,1.06-4.33,1.59-6.49c0.38-1.54,0.01-2.81-1.23-3.84c-1.78-1.48-3.52-3.01-5.31-4.48
		c-1.27-1.04-1.86-2.31-1.35-3.9c0.51-1.59,1.77-2.27,3.38-2.39c2.27-0.18,4.53-0.38,6.8-0.53c1.64-0.1,2.74-0.87,3.37-2.4
		c0.91-2.22,1.89-4.4,2.79-6.62c0.59-1.44,1.6-2.29,3.15-2.29c1.58,0,2.68,0.83,3.3,2.31c0.93,2.21,1.9,4.4,2.81,6.62
		c0.63,1.54,1.76,2.28,3.39,2.39c2.27,0.16,4.53,0.34,6.8,0.52c1.86,0.15,3.1,0.98,3.49,2.42c0.44,1.62-0.22,2.84-1.48,3.86
		c-1.8,1.46-3.54,2.99-5.31,4.48c-1.21,1.02-1.66,2.25-1.26,3.82c0.58,2.28,1.1,4.58,1.64,6.87c0.43,1.82,0.07,3.1-1.17,3.93
		c-1.38,0.93-2.75,0.78-4.13-0.09c-1.95-1.24-3.93-2.45-5.93-3.61C76.37,137.11,75.63,136.91,74.9,136.62z"/>
</g>
</svg>
